 <svg version="1.0" xmlns="http://www.w3.org/2000/svg" width="24.000000pt" height="24.000000pt" viewBox="0 0 700.000000 700.000000" preserveAspectRatio="xMidYMid meet">
<metadata>
Created by potrace 1.12, written by Peter Selinger 2001-2015
</metadata>
<g transform="translate(0.000000,700.000000) scale(0.100000,-0.100000)" fill="#ffffff" stroke="none">
<path d="M3175 6993 c-339 -40 -530 -87 -773 -189 -286 -120 -526 -280 -761
-509 -389 -379 -623 -826 -724 -1380 -19 -105 -22 -156 -22 -405 0 -303 5
-349 61 -610 142 -652 490 -1397 1021 -2188 264 -393 498 -693 823 -1052 128
-141 487 -567 545 -646 10 -14 27 1 130 120 144 168 381 431 490 546 214 224
396 438 595 700 189 249 429 617 589 902 222 398 426 868 521 1203 171 599
203 1087 104 1550 -205 950 -947 1700 -1884 1904 -220 48 -555 74 -715 54z
m439 -957 c452 -64 741 -232 876 -511 74 -152 100 -276 100 -477 0 -190 -24
-301 -95 -440 -92 -183 -267 -349 -473 -452 -39 -20 -52 -31 -48 -42 7 -18
697 -1047 911 -1359 34 -49 65 -96 69 -102 6 -10 -76 -13 -396 -13 l-403 0
-69 113 c-38 61 -131 211 -206 332 -75 121 -190 306 -255 410 -64 105 -132
213 -150 240 -17 28 -54 87 -81 132 l-49 82 -192 1 -193 0 0 -655 0 -655 -365
0 -365 0 0 1703 c0 937 3 1707 7 1711 4 4 289 5 633 3 515 -3 646 -7 744 -21z"></path>
<path d="M2960 4999 l0 -462 218 6 c241 5 343 22 456 77 157 75 236 225 223
425 -10 152 -54 237 -157 307 -112 75 -288 108 -572 108 l-168 0 0 -461z"></path>
</g>
</svg>