 <svg version="1.0" xmlns="http://www.w3.org/2000/svg" width="24.000000pt" height="24.000000pt" viewBox="0 0 700.000000 700.000000" preserveAspectRatio="xMidYMid meet">
<metadata>
Created by potrace 1.12, written by Peter Selinger 2001-2015
</metadata>
<g transform="translate(0.000000,700.000000) scale(0.100000,-0.100000)" fill="#ffffff" stroke="none">
<path d="M3175 6993 c-339 -40 -530 -87 -773 -189 -286 -120 -526 -280 -761
-509 -389 -379 -623 -826 -724 -1380 -19 -105 -22 -156 -22 -405 0 -303 5
-349 61 -610 142 -652 490 -1397 1021 -2188 264 -393 498 -693 823 -1052 128
-141 487 -567 545 -646 10 -14 27 1 130 120 144 168 381 431 490 546 214 224
396 438 595 700 189 249 429 617 589 902 222 398 426 868 521 1203 171 599
203 1087 104 1550 -205 950 -947 1700 -1884 1904 -220 48 -555 74 -715 54z
m625 -917 c52 -9 140 -28 195 -42 189 -49 483 -157 492 -181 3 -7 -14 -59 -37
-116 -24 -56 -64 -154 -91 -217 -26 -63 -58 -141 -72 -172 l-25 -57 -74 31
c-335 138 -653 196 -863 157 -200 -37 -313 -193 -283 -387 12 -73 43 -127 112
-190 69 -63 153 -111 439 -250 365 -179 511 -268 651 -402 118 -112 179 -209
232 -370 27 -82 28 -93 29 -285 0 -181 -2 -208 -23 -280 -105 -357 -380 -586
-822 -681 -143 -31 -474 -44 -665 -25 -245 24 -490 89 -687 181 l-28 13 0 334
c0 212 4 333 10 333 5 0 74 -26 152 -59 229 -94 404 -150 593 -188 67 -13 135
-18 265 -18 153 0 184 3 245 22 177 56 264 176 253 346 -6 86 -30 139 -96 209
-72 78 -172 137 -497 298 -346 171 -482 256 -600 375 -148 149 -232 305 -266
492 -23 128 -24 210 -4 346 25 169 81 303 174 421 174 218 390 321 796 380 66
9 404 -3 495 -18z"></path>
</g>
</svg>